<svg xmlns="http://www.w3.org/2000/svg" xmlns:xlink="http://www.w3.org/1999/xlink" width="200" height="200" viewBox="0 0 200 200"><title>image_emptypage_unabletopublish@3x</title><defs><linearGradient id="a" x1="50%" x2="50%" y1="0%" y2="100%"><stop offset="0%" stop-color="#FAFCFF"/><stop offset="100%" stop-color="#F2F7FD"/></linearGradient><linearGradient id="b" x1="50%" x2="50%" y1="0%" y2="100%"><stop offset="0%" stop-color="#FF8395"/><stop offset="100%" stop-color="#FF4C5C"/></linearGradient><linearGradient id="c" x1="50%" x2="50%" y1="0%" y2="100%"><stop offset="0%" stop-color="#70E0CC"/><stop offset="100%" stop-color="#3DBE9D"/></linearGradient><linearGradient id="d" x1="50%" x2="50%" y1="0%" y2="100%"><stop offset="0%" stop-color="#70E0CC"/><stop offset="100%" stop-color="#3DBE9D"/></linearGradient><linearGradient id="e" x1="50%" x2="50%" y1="0%" y2="100%"><stop offset="0%" stop-color="#C4F0D5"/><stop offset="100%" stop-color="#92DCAB"/></linearGradient><linearGradient id="f" x1="50%" x2="50%" y1="0%" y2="100%"><stop offset="0%" stop-color="#AED1EF"/><stop offset="100%" stop-color="#75A5DB"/></linearGradient><linearGradient id="g" x1="50%" x2="50%" y1="0%" y2="100%"><stop offset="0%" stop-color="#BEDBF3"/><stop offset="100%" stop-color="#8AB4E4"/></linearGradient><linearGradient id="h" x1="50%" x2="50%" y1="0%" y2="100%"><stop offset="0%" stop-color="#05C2FF"/><stop offset="100%" stop-color="#028FFF"/></linearGradient><linearGradient id="i" x1="50%" x2="50%" y1="0%" y2="100%"><stop offset="0%" stop-color="#9BE2B8"/><stop offset="100%" stop-color="#62C182"/></linearGradient><linearGradient id="j" x1="50%" x2="50%" y1="0%" y2="100%"><stop offset="0%" stop-color="#C4F0D5"/><stop offset="100%" stop-color="#92DCAB"/></linearGradient><linearGradient id="k" x1="50%" x2="50%" y1="0%" y2="100%"><stop offset="0%" stop-color="#AED1EF"/><stop offset="100%" stop-color="#75A5DB"/></linearGradient><linearGradient id="l" x1="50%" x2="50%" y1="0%" y2="100%"><stop offset="0%" stop-color="#BEDBF3"/><stop offset="100%" stop-color="#8AB4E4"/></linearGradient><linearGradient id="m" x1="50%" x2="50%" y1="0%" y2="100%"><stop offset="0%" stop-color="#D4E3F8"/><stop offset="100%" stop-color="#A9C2ED"/></linearGradient><path id="n" d="M89.554 174.279H77.685l-1.81-1.644-.793 1.644h-5.138v-6.404h8.806l8.594 3.217c1.33.497 2.21 1.767 2.21 3.187z"/><filter id="o" width="103.1%" height="109.4%" x="-1.5%" y="-4.7%" filterUnits="objectBoundingBox"><feOffset dy="-.6" in="SourceAlpha" result="shadowOffsetInner1"/><feComposite in="shadowOffsetInner1" in2="SourceAlpha" k2="-1" k3="1" operator="arithmetic" result="shadowInnerInner1"/><feColorMatrix in="shadowInnerInner1" values="0 0 0 0 0.349019608 0 0 0 0 0.509803922 0 0 0 0 0.768627451 0 0 0 1 0"/></filter><path id="p" d="M112.77 174.279h-11.869l-1.81-1.644-.793 1.644h-5.139v-6.404h8.806l8.595 3.217c1.33.497 2.21 1.767 2.21 3.187z"/><filter id="q" width="103.1%" height="109.4%" x="-1.5%" y="-4.7%" filterUnits="objectBoundingBox"><feOffset dy="-.6" in="SourceAlpha" result="shadowOffsetInner1"/><feComposite in="shadowOffsetInner1" in2="SourceAlpha" k2="-1" k3="1" operator="arithmetic" result="shadowInnerInner1"/><feColorMatrix in="shadowInnerInner1" values="0 0 0 0 0.349019608 0 0 0 0 0.509803922 0 0 0 0 0.768627451 0 0 0 1 0"/></filter><path id="r" d="M57.313 70.082c2.125-1.232 5.456-1.74 7.01-.35 1.868 1.669.708 5.666-.585 9.943-2.681 8.872-6.664 12.902-5.023 15.323.88 1.3 2.85 1.362 4.09 1.404 13.572.47 20.597-2.061 23.249 1.17 1.283 1.565 1.466 4.534.35 5.615-.636.616-1.622.527-1.986.527-7.953.014-37.65-.08-39.247 0h-.009c-.577-.103 4.781-24.73 9.814-31.526.302-.408 1.056-1.363 2.337-2.106"/><filter id="s" width="102.4%" height="102.9%" x="-1.2%" y="-1.4%" filterUnits="objectBoundingBox"><feOffset dx="-1" dy=".8" in="SourceAlpha" result="shadowOffsetInner1"/><feComposite in="shadowOffsetInner1" in2="SourceAlpha" k2="-1" k3="1" operator="arithmetic" result="shadowInnerInner1"/><feColorMatrix in="shadowInnerInner1" values="0 0 0 0 0.217979609 0 0 0 0 0.314413418 0 0 0 0 0.688094429 0 0 0 0.1 0"/></filter></defs><g fill="none" fill-rule="evenodd" transform="translate(0 11)"><path fill="url(#a)" d="M193.67 93.986c0 31.356-15.333 59.127-38.905 76.194-15.76-.462-34.658-.734-54.963-.734-20.304 0-39.201.272-54.962.734-23.573-17.067-38.906-44.838-38.906-76.194C5.934 42.086 47.96 0 99.802 0c51.844 0 93.869 42.085 93.869 93.986"/><path fill="url(#b)" fill-rule="nonzero" d="M58.46 22c1.75 0 3.176.458 4.253 1.427 1.077.942 1.615 2.234 1.615 3.876 0 1.346-.35 2.45-.996 3.31-.242.27-1.023.996-2.315 2.127-.484.404-.834.861-1.076 1.346-.27.538-.404 1.103-.404 1.75v.376H56.44v-.377c0-1.022.162-1.91.539-2.638.35-.726 1.4-1.857 3.149-3.418l.323-.377c.484-.592.727-1.238.727-1.91 0-.89-.27-1.589-.754-2.1-.511-.512-1.238-.754-2.153-.754-1.185 0-2.02.35-2.53 1.103-.458.62-.673 1.508-.673 2.638H52c0-1.992.565-3.553 1.75-4.683C54.907 22.566 56.468 22 58.46 22zm-.484 15.531c.592 0 1.103.189 1.507.565.377.377.592.862.592 1.454s-.215 1.104-.619 1.48c-.404.377-.888.566-1.48.566-.593 0-1.077-.216-1.48-.593-.405-.376-.593-.86-.593-1.453 0-.592.188-1.077.592-1.454.404-.376.888-.565 1.48-.565z" transform="rotate(-25 58.164 31.798)"/><path fill="#D0E3F4" d="M154.765 170.18c-1.004.727-2.023 1.435-3.055 2.123 1.032-.688 2.051-1.396 3.055-2.123-15.76-.462-34.658-.734-54.963-.734-20.304 0-39.201.272-54.962.734-27.021.8-44.84 2.167-44.84 3.717 0 1.788 23.556 3.329 57.564 4.037h84.477c34.008-.708 57.564-2.25 57.564-4.037 0-1.55-17.819-2.918-44.84-3.717"/><path fill="#254A90" d="M67.39 174.464h-4.998l-31.839-64.24h4.997z"/><path fill="#254A90" d="M15.928 174.464h4.999l31.839-64.24h-4.997zm151.121 0h-4.998l-31.839-64.24h4.997z"/><path fill="#254A90" d="M115.587 174.464h4.998l31.84-64.24h-4.998z"/><path fill="url(#c)" d="M165.273 152.434c-3.628-.861-7.196-3.753-8.313-7.552-1.227-4.17 1.517-5.963 0-8.839-1.753-3.319-5.902-1.854-8.743-5.406-2.669-3.338-2.797-9.373 0-11.585 2.465-1.95 6.56-.421 8.143.171 10.39 3.882 13.786 16.59 14.742 20.167.882 3.305 2.766 10.351-.343 12.701-1.657 1.252-4.078.677-5.486.343"/><path fill="url(#d)" d="M178.473 153.035c4.321.908 11.005-5.122 11.57-10.985.443-4.585-3.06-6.972-1.885-12.529.55-2.598 1.81-4.421 3.086-6.264 3.938-5.693 7.516-5.852 8.142-9.526.408-2.392-.617-5.218-2.571-6.437-2.787-1.736-6.94.123-9.171 1.975-2.972 2.465-2.038 4.495-5.828 8.41-1.909 1.97-2.478 1.798-4.458 3.948 0 0-2.617 2.84-4.285 6.435-3.515 7.576-.847 23.662 5.4 24.973"/><path fill="#629FA2" fill-rule="nonzero" d="M193.202 111.553c-4.562 5.46-8.52 11.74-11.557 19.118-4.013 9.748-5.56 19.214-5.527 28.34 0 .228.185.412.413.41.227 0 .41-.185.41-.412-.032-9.025 1.497-18.386 5.465-28.025 3.004-7.294 6.916-13.504 11.427-18.903.146-.174.123-.434-.052-.58-.174-.145-.433-.122-.58.052zm-42.177 12.637c4.616 2.38 8.914 5.728 12.516 10.553 5.528 7.402 7.345 15.242 7.247 22.76-.003.228.179.415.406.418.227.002.414-.18.417-.407.1-7.683-1.756-15.692-7.41-23.264-3.686-4.935-8.08-8.358-12.799-10.792-.202-.104-.45-.024-.554.178-.104.202-.025.45.177.554z"/><path fill="url(#e)" d="M174.048 155.854c.773-1.265 1.94-3.209 3.293-5.619 4.316-7.683 8.046-14.364 6.247-15.966-1.155-1.03-3.987.844-4.767-.165-1.523-1.972 7.931-10.913 6.493-12.673-.377-.462-1.375-.272-2.794 0-3.27.625-4.645 2.313-5.261 1.892-.824-.562 1.107-3.955 1.973-7.323 1.806-7.027-.579-15.663-3.37-16.132-3.037-.508-9.033 8.242-7.48 14.979.55 2.381 1.98 4.24 1.233 5.02-1.327 1.39-7.15-3.459-8.63-1.81-1.473 1.64 1.21 6.463 1.644 7.242 2.17 3.897 4.513 4.704 5.671 8.64.33 1.12.913 3.103.082 3.787-1.693 1.392-7.461-4.097-9.04-2.717-.574.501-.314 1.661-.083 2.634.886 3.741 3.419 5.38 5.59 8.23 1.191 1.565 2.625 3.956 3.533 7.49l5.666 2.491z"/><path fill="#629FA2" fill-rule="nonzero" d="M174.456 155.795c-1.227-8.423-1.803-17.174-1.572-26.303.21-8.224 1.058-16.111 2.433-23.703.04-.223-.108-.437-.332-.478-.224-.04-.438.108-.478.332-1.382 7.631-2.235 15.56-2.445 23.828-.233 9.177.346 17.975 1.58 26.443.032.225.24.38.466.348.225-.033.38-.242.348-.467z"/><path fill="url(#f)" d="M185.297 147.649v18.121c0 4.87-3.95 8.826-8.815 8.826h-7.942c-4.865 0-8.815-3.955-8.815-8.826v-18.12h25.572z"/><path fill="url(#g)" d="M182.499 147.649v18.121c0 4.87-3.943 8.826-8.815 8.826h-5.144c-4.864 0-8.815-3.955-8.815-8.826v-18.12h22.774z"/><path fill="url(#h)" d="M161.378 40.535h-34.55c-2.362 0-4.276 1.916-4.276 4.28v14.847c0 2.364 1.914 4.28 4.275 4.28h1.401v4.913l6.061-4.912h27.089c2.361 0 4.275-1.917 4.275-4.28V44.814c0-2.364-1.914-4.28-4.275-4.28"/><path fill="url(#i)" d="M39.61 83.578V93.68h-11.4V83.578c0-2.934 2.215-5.349 5.062-5.662.206-.033.42-.04.634-.04 3.152 0 5.704 2.554 5.704 5.702"/><path fill="url(#j)" d="M38.326 83.578V93.68H28.21V83.578c0-2.934 2.214-5.349 5.061-5.662 2.84.313 5.054 2.728 5.054 5.662"/><circle cx="33.5" cy="79.5" r="1" fill="#62C182" opacity=".4"/><circle cx="33.5" cy="82.5" r="1" fill="#62C182" opacity=".6"/><circle cx="30.5" cy="82.5" r="1" fill="#62C182" opacity=".4"/><circle cx="36.5" cy="82.5" r="1" fill="#62C182" opacity=".4"/><circle cx="33.5" cy="85.5" r="1" fill="#62C182"/><circle cx="30.5" cy="85.5" r="1" fill="#62C182" opacity=".4"/><circle cx="36.5" cy="85.5" r="1" fill="#62C182" opacity=".4"/><circle cx="33.5" cy="88.5" r="1" fill="#62C182" opacity=".4"/><circle cx="30.5" cy="88.5" r="1" fill="#62C182" opacity=".4"/><circle cx="36.5" cy="88.5" r="1" fill="#62C182" opacity=".4"/><path fill="url(#k)" d="M40.408 89.733v9.823c0 2.2-1.778 3.989-3.984 3.989h-5.827c-2.197 0-3.983-1.788-3.983-3.989v-9.823h13.794z"/><path fill="url(#l)" d="M38.326 89.733v9.823c0 2.2-1.786 3.989-3.984 3.989h-3.745c-2.197 0-3.983-1.788-3.983-3.989v-9.823h11.712z"/><path fill="url(#m)" d="M63.419 170.128v-43.372h4.98v43.372h18.985c2.392 0 4.33 1.942 4.33 4.336H44.529c0-2.394 1.94-4.336 4.33-4.336h14.56z"/><path fill="#D4E4FF" d="M81.433 127.942h-27.32c-4.87 0-8.819-4.027-8.819-8.996v-41.96c0-7.205 5.724-13.044 12.785-13.044h17.643c3.36 0 6.083 2.779 6.083 6.205v57.416c0 .21-.166.38-.372.38"/><path fill="#FFB296" d="M75.014 171.162l-1.991-.27c-1.464-.197-2.5-1.558-2.302-3.023l.764-5.667c.198-1.466 1.557-2.503 3.02-2.305l1.992.268c1.463.198 2.498 1.56 2.3 3.024l-.763 5.668c-.197 1.465-1.556 2.502-3.02 2.305"/><use fill="#1E4278" xlink:href="#n"/><use fill="#000" filter="url(#o)" xlink:href="#n"/><path fill="#FFB296" d="M98.27 171.076h-2.01c-1.477 0-2.685-1.21-2.685-2.688v-5.718c0-1.48 1.208-2.689 2.685-2.689h2.01c1.476 0 2.684 1.21 2.684 2.689v5.718c0 1.479-1.208 2.688-2.685 2.688"/><use fill="#1E4278" xlink:href="#p"/><use fill="#000" filter="url(#q)" xlink:href="#p"/><path fill="#283770" d="M78.73 110.694c3.77-.177 7.721 1.842 15.625 5.882 0 0 7.81 3.997 10.267 9.113.078.161.139.3.188.413.196.462.777 1.88 1.174 5.293 1.11 9.55-1.444 15.508-3.163 30.859-.03.271.236 1.133-.205 1.914-1.385 2.443-8.09 2.588-9.694-.274-.487-.868-.384-1.794-.342-2.12 0 0 2.521-19.292.137-27.75-.133-.471-.38-1.222-.956-1.984-1.82-2.4-5.214-2.635-6.212-2.733-6.225-.611-20.562-5.876-20.959-10.39-.3-3.41 7.227-7.897 14.14-8.223"/><path fill="#334791" d="M48.922 113.047c-1.216 3.067 2.382 7.688 5.046 9.889 3.987 3.294 10.31 4.828 12.561 5.374 3.106.754 5.97 1.096 6.978 3.226.597 1.26.267 2.57.107 3.224-3.324 13.56-1.16 18.667-3.226 26.653-.092.358-.335 1.27.113 2.048.67 1.165 2.452 1.378 4.509 1.397 2.046.02 3.35.17 4.401-.752.697-.611.962-1.374 1.075-1.72 5.302-16.37 6.548-28.485 6.548-28.485.238-2.308.355-3.474.322-4.085-.564-10.453-11.577-16.988-12.131-17.306-10.093-5.8-24.372-4.337-26.303.537"/><path fill="#7E97FC" d="M83.918 76.895c.851 4.511 1.668 5.843 1.743 9.974.08 4.428.243 6.015 1.625 7.67 2.107 2.525 5.877 2.924 7.893 3.138 1.732.183 3.282.08 6.267-.116 4.033-.267 5.17-.662 6.035.116.447.401 1.47 1.697.116 6.037H77.304l6.614-26.819z"/><path fill="#5B76DD" d="M86.581 93.508c-.657 3.787-1.867 7.246-3.064 10.206h-6.213l6.614-26.819c.851 4.511 1.668 5.843 1.743 9.974.063 3.523.18 5.248.92 6.639z" opacity=".6"/><path fill="#7E97FC" d="M69.792 66.094c-2.659-.403-6.612-1.002-9.98 1.23-3.373 2.236-5.067 6.512-6.755 11.222-.7 1.95-2.605 7.155-4.145 16.601-1.321 8.1-1.948 12.196-.307 14.45 2.66 3.656 8.267 3.745 14.431 3.843 11.975.192 14.992-1.645 15.814-2.459.949-.94 1.511-1.918 2.366-3.899 2.782-6.438 7.163-16.578 3.726-27.584-.627-2.01-1.413-4.441-3.474-6.958-4.146-5.06-9.947-6.184-11.676-6.446"/><path fill="#D0E3F4" d="M133.74 103.714h-32.003c-1.656 0-2.737-1.357-2.402-3.016l4.398-21.737c.336-1.659 1.966-3.016 3.623-3.016h32.004c1.656 0 2.737 1.357 2.401 3.016l-4.397 21.737c-.336 1.659-1.966 3.016-3.623 3.016"/><path fill="#AACDED" d="M92.153 103.714h45.503c.576 0 1.048-.471 1.048-1.048v-.212c0-.577-.472-1.049-1.048-1.049H92.153c-.576 0-1.047.472-1.047 1.049v.212c0 .577.471 1.048 1.047 1.048"/><path fill="#FFC2AC" d="M85.627 103.922c-1.625 0-2.957-1.333-2.957-2.962 0-1.627 1.332-2.96 2.957-2.96h5.14c1.628 0 6.32 1.135 6.32 3.065s-3.39 2.857-3.956 2.857h-7.504z"/><use fill="#7490FD" xlink:href="#r"/><use fill="#000" filter="url(#s)" xlink:href="#r"/><path fill="#FFB296" d="M74.636 57.748c-2.42 0-4.399 1.982-4.399 4.405v7.951c0 2.423 1.98 4.405 4.4 4.405 2.418 0 4.398-1.982 4.398-4.405v-7.951c0-2.423-1.98-4.405-4.399-4.405"/><path fill="#FFC2AC" d="M72.926 64.997c-1.43-1.003-3.403-3.885-4.565-5.686-.705-1.33-.594-2.822.236-3.708.054-.059.93-.966 2.05-.79.362.057.684.218.983.471v-1.697c0-4.566 3.73-8.301 8.291-8.301 4.56 0 8.292 3.735 8.292 8.301v6.966c0 4.566-3.731 8.302-8.292 8.302-2.931 0-5.52-1.543-6.995-3.858z"/><path fill="#702754" d="M68.314 57.755c-.946-.012-2.884-4.893-1.31-9.383 1.83-5.217 7.362-6.929 7.832-7.066 2.78-.813 7.463-1.016 10.442 1.258.689.527 1.456 1.315 2.566 1.257 1.814-.096 2.369-2.344 3.678-2.253 1.342.093 2.606 2.584 2.571 4.755-.042 2.66-2.028 4.508-3.178 5.579-.655.61-1.641 1.51-3.22 2.084-2.523.92-4.83.381-5.699.125-2.482-.731-2.621-1.914-3.913-1.754-2.432.303-3.056 4.637-4.98 4.548-1.209-.056-1.65-1.798-2.736-1.643-1.23.174-1.398 2.5-2.053 2.493"/><path fill="#73A7D9" d="M157.425 110.224H24.788c-2.395 0-4.335-1.943-4.335-4.34H161.76c0 2.397-1.941 4.34-4.335 4.34"/><path fill="#94C2F5" d="M161.76 105.884H20.453c0-1.199.97-2.17 2.167-2.17h136.973c1.196 0 2.167.971 2.167 2.17"/><path fill="#FFF" d="M134.602 54.983v1.249h-4.655v-7.54h4.46v1.239h-3.038v1.824h2.821v1.185h-2.821v2.043h3.233zm4.623-4.726l-.044 1.217h-.14c-.727 0-1.487.26-1.694 1.27v3.488h-1.356v-5.867h1.356v1.054c.348-.967 1.074-1.162 1.758-1.162h.12zm4.275 0l-.044 1.217h-.14c-.727 0-1.487.26-1.693 1.27v3.488h-1.357v-5.867h1.357v1.054c.347-.967 1.074-1.162 1.758-1.162h.119zm4.829 3.042c0-1.522-.348-2-1.422-2-1.074 0-1.41.478-1.41 2 0 1.52.357 1.988 1.41 1.988 1.085 0 1.422-.467 1.422-1.988zm-4.233 0c0-2.38 1.032-3.042 2.811-3.042 1.79 0 2.822.663 2.822 3.042 0 2.379-1.032 3.041-2.822 3.041-1.78 0-2.81-.662-2.81-3.041zm10.265-3.042l-.043 1.217h-.14c-.728 0-1.487.26-1.694 1.27v3.488h-1.356v-5.867h1.356v1.054c.347-.967 1.074-1.162 1.758-1.162h.12zm3.755-1.565l-.195 4.987h-1.118l-.196-4.987h1.509zm-1.595 6.768c0-.706.14-.825.835-.825.662 0 .846.119.846.825s-.184.838-.846.838c-.694 0-.835-.132-.835-.838z"/><path fill="#AACDED" d="M123.142 89.54c0 1.5-1.215 2.715-2.712 2.715-1.498 0-2.712-1.216-2.712-2.716 0-1.5 1.214-2.715 2.712-2.715 1.497 0 2.712 1.216 2.712 2.715"/><path fill="#D0E3F4" fill-rule="nonzero" d="M79.916 171.029l.924-2.335-.651-.257-.924 2.334zm23.439.083l.924-2.334-.651-.257-.924 2.334zm-20.414.45l.658-1.781-.657-.242-.657 1.781zm23.44.084l.657-1.781-.657-.243-.657 1.782zm-20.19.777l.547-1.408-.653-.253-.546 1.408zm23.44.084l.546-1.408-.653-.253-.546 1.408z"/></g></svg>