<svg xmlns="http://www.w3.org/2000/svg" width="90" height="32" viewBox="0 0 90 32"><linearGradient id="a" x1="50%" x2="50%" y1="0%" y2="100%"><stop offset="0" stop-color="#c5cfda"/><stop offset="1" stop-color="#93a2b3"/></linearGradient><path fill="url(#a)" fill-rule="evenodd" d="M11.337 6.228h3.142l-7.195 6.99 8.243 9.267h-3.325L5.6 14.835 3.482 16.86v5.624H1V6.228h2.482v7.855zM18.6 6c.478 0 .888.137 1.207.455.319.296.478.683.478 1.162s-.182.865-.5 1.184c-.32.296-.73.455-1.185.455-.478 0-.865-.16-1.184-.455-.318-.32-.478-.729-.478-1.184 0-.479.16-.866.478-1.162.32-.318.706-.455 1.184-.455zm-1.206 4.713h2.413v11.772h-2.413zm11.634-.319c2.915 0 4.395 1.594 4.395 4.827v7.264h-2.414v-7.059c0-2.003-.933-3.005-2.755-3.005-.683 0-1.298.228-1.798.728-.547.547-.888 1.298-.98 2.255v7.08h-2.413v-11.77h2.413v1.456c.456-.592.98-1.024 1.572-1.32.592-.319 1.252-.456 1.98-.456zm12.045 0c1.548 0 2.732.615 3.598 1.89v-1.57h2.413V21.71c0 3.735-1.844 5.602-5.487 5.602-1.64 0-2.892-.32-3.757-.934-.865-.637-1.389-1.594-1.617-2.892h2.414c.136.684.41 1.184.865 1.48.433.274 1.139.433 2.095.433 2.049 0 3.074-1.116 3.074-3.324v-1.822c-.866 1.298-2.05 1.958-3.598 1.958-1.594 0-2.891-.546-3.87-1.616-1.002-1.07-1.48-2.482-1.48-4.258 0-1.776.478-3.188 1.48-4.28.979-1.116 2.276-1.663 3.87-1.663zm.364 1.959c-1.024 0-1.821.341-2.368 1.07-.591.683-.865 1.662-.865 2.914 0 1.138.228 2.05.683 2.71.524.774 1.366 1.184 2.55 1.184 1.025 0 1.822-.342 2.414-1.025.546-.706.842-1.662.842-2.869 0-1.23-.296-2.209-.842-2.914-.592-.729-1.389-1.07-2.414-1.07zm7.127-1.64h2.664l2.482 8.903 2.413-8.903h2.232l2.413 8.903 2.482-8.903h2.664l-3.985 11.772H59.7l-2.46-8.812-2.459 8.812H52.55zm23.816-.319c1.913 0 3.393.638 4.395 1.959.91 1.183 1.389 2.823 1.411 4.918h-8.925c.091 1.138.387 2.026.933 2.64.547.593 1.298.912 2.255.912.842 0 1.525-.205 2.049-.592.41-.32.751-.843 1.07-1.526h2.413c-.273 1.093-.796 2.026-1.616 2.755-1.025.888-2.323 1.343-3.894 1.343-1.73 0-3.119-.546-4.12-1.616-1.094-1.139-1.64-2.664-1.64-4.6 0-1.753.5-3.21 1.548-4.394 1.002-1.207 2.39-1.799 4.121-1.799zm.069 1.981c-.911 0-1.617.25-2.163.797-.501.524-.843 1.275-.98 2.277h6.353c-.228-2.05-1.298-3.074-3.21-3.074zM81.943 6c.478 0 .888.137 1.207.455.319.296.478.683.478 1.162s-.182.865-.5 1.184c-.32.296-.73.455-1.185.455-.478 0-.865-.16-1.184-.455-.319-.32-.478-.729-.478-1.184 0-.479.16-.866.478-1.162.319-.318.706-.455 1.184-.455zm-1.207 4.713h2.414v11.772h-2.414zm7.4 8.516c.456 0 .866.16 1.207.478.319.319.501.728.501 1.23 0 .455-.182.865-.5 1.206-.342.296-.752.455-1.208.455-.5 0-.888-.159-1.184-.455-.341-.341-.5-.751-.5-1.207 0-.5.159-.91.5-1.23.296-.318.683-.477 1.184-.477z"/></svg>